<?xml version="1.0" standalone="no"?>
<!DOCTYPE svg PUBLIC "-//W3C//DTD SVG 1.1//EN" "http://www.w3.org/Graphics/SVG/1.1/DTD/svg11.dtd" >
<svg xmlns="http://www.w3.org/2000/svg">
<metadata></metadata>
<defs>
<font id="StartupTextRegular" horiz-adv-x="995" >
<font-face units-per-em="2048" ascent="1638" descent="-410" />
<missing-glyph horiz-adv-x="512" />
<glyph horiz-adv-x="0" />
<glyph horiz-adv-x="0" />
<glyph unicode="&#xd;" horiz-adv-x="614" />
<glyph unicode=" "  horiz-adv-x="512" />
<glyph unicode="&#x09;" horiz-adv-x="512" />
<glyph unicode="&#xa0;" horiz-adv-x="512" />
<glyph unicode="!" horiz-adv-x="774" d="M150 1427h473l-80 -720q-6 -68 -41 -119t-115 -51q-74 0 -114 46t-48 124zM158 193q0 47 17.5 86.5t48 69.5t72.5 47.5t91 17.5q98 0 162.5 -62.5t64.5 -158.5q0 -47 -17 -87t-48 -70t-73 -46.5t-89 -16.5q-49 0 -91 17.5t-72.5 46.5t-48 69t-17.5 87z" />
<glyph unicode="&#x22;" horiz-adv-x="972" d="M78 1395q-6 45 6 81.5t37.5 62.5t61.5 40t75 14t76 -12t63.5 -37.5t39 -64.5t1.5 -93l-94 -468h-178zM516 1395q-6 45 6.5 81.5t38 62.5t61 40t74.5 14t76 -12t63.5 -37.5t39 -64.5t2.5 -93l-95 -468h-178z" />
<glyph unicode="#" horiz-adv-x="1536" d="M119 293l51 258h199q16 82 33.5 168t33.5 172h-207l47 242h207q12 66 23.5 119t19.5 94q8 47 17 84h268q-8 -37 -16 -84q-8 -41 -18.5 -94.5t-22.5 -118.5h239q12 66 22.5 119t18.5 94q8 47 17 84h262q-8 -37 -17 -84q-8 -41 -17 -94.5t-22 -118.5h119q53 0 90 -21.5 t31 -91.5q-6 -57 -34.5 -93t-92.5 -36h-156l-63 -340h119q53 0 88 -28.5t28 -98.5q-6 -57 -49 -94t-104 -37h-131q-16 -84 -27.5 -139.5t-15.5 -71.5q-16 -49 -51 -77t-105 -28q-59 0 -88 40t-14 112l30 164h-241l-43 -215q-31 -100 -158 -101q-61 0 -92 40t-14 114 q4 10 11 53t21 109h-196zM641 551h240l65 340h-239q-16 -86 -33 -171t-33 -169z" />
<glyph unicode="$" horiz-adv-x="1257" d="M92 137l82 299q35 -27 85 -48t106.5 -37.5t117 -26t115.5 -9.5q86 0 146.5 30t60.5 104q0 29 -22.5 48t-61.5 33.5t-91 26.5t-112 27q-84 20 -155.5 49t-125 73t-83 110.5t-29.5 162.5q0 162 96 278.5t260 157.5v141q0 41 22.5 69t55.5 41t72 14t71.5 -11t55 -35.5 t22.5 -58.5v-154q53 -10 102.5 -23.5t86.5 -29.5q123 -59 135 -162q4 -29 -3 -59.5t-25.5 -56t-49.5 -43t-74 -17.5q-37 0 -68.5 12.5t-68.5 27.5t-81 28.5t-105 13.5q-90 0 -128 -34t-38 -91q0 -37 24.5 -58.5t67.5 -36.5t102.5 -27.5t126.5 -30.5q168 -45 270.5 -137.5 t102.5 -247.5q0 -190 -104.5 -307t-272.5 -152v-254h-305v252q-61 8 -120.5 23.5t-110.5 35t-91 43t-61 47.5z" />
<glyph unicode="%" horiz-adv-x="1552" d="M74 1141q0 76 23.5 137t66.5 104t103.5 65.5t131.5 22.5q137 0 226.5 -78.5t89.5 -248.5q0 -158 -90 -242t-236 -84q-145 0 -230 88.5t-85 235.5zM229 0q203 340 369 618q70 119 139.5 236t128 214t99.5 165.5t53 91.5q35 59 73.5 95t106.5 28q59 -6 71.5 -57.5 t-30.5 -122.5q-10 -18 -49 -82t-94.5 -156t-123 -204.5t-134.5 -227.5q-160 -268 -359 -598h-250zM285 1145q0 -59 30.5 -96t85.5 -37t85 38t30 95q0 66 -33.5 99.5t-83.5 33.5q-53 0 -83.5 -36t-30.5 -97zM854 309q0 72 23.5 132.5t66.5 104.5t103.5 68.5t132.5 24.5 q137 0 226 -84t89 -244q0 -158 -90 -241.5t-236 -83.5q-145 0 -230 88t-85 235zM1067 309q0 -59 30.5 -96t86.5 -37q55 0 84.5 38t29.5 95q0 66 -33.5 99.5t-82.5 33.5q-53 0 -84 -35.5t-31 -97.5z" />
<glyph unicode="&#x26;" horiz-adv-x="1484" d="M47 375q0 145 69.5 247.5t223.5 180.5q-66 59 -103.5 136t-37.5 155q0 86 33.5 153.5t94 113.5t142.5 70.5t178 24.5t178 -24.5t141.5 -69.5t92.5 -106.5t33 -135.5q0 -131 -70 -225t-199 -168l138 -149q14 18 26 36.5t25.5 40t30 46t38.5 57.5q35 51 61.5 79.5 t67.5 39.5q39 10 75 1.5t64.5 -26.5t46 -46t19.5 -56q2 -55 -21.5 -110.5t-60.5 -108t-81 -98.5t-83 -81l293 -352h-399l-133 152q-172 -184 -447 -185q-92 0 -171 28t-138 80t-93 128t-34 172zM393 414q0 -66 42 -108t118 -42q61 0 106.5 19.5t90.5 68.5l-220 260 q-76 -47 -106.5 -96t-30.5 -102zM518 1075q4 -41 41 -87t80 -79q25 12 47.5 29.5t40.5 39t29.5 44t11.5 45.5q0 61 -37 94t-96 33q-57 0 -89 -33t-28 -86z" />
<glyph unicode="'" horiz-adv-x="559" d="M98 1395q-6 45 6.5 81.5t38 62.5t61.5 40t75 14t75.5 -12t63 -37.5t39 -64.5t2.5 -93l-94 -468h-179z" />
<glyph unicode="(" horiz-adv-x="667" d="M-29 633q0 123 16.5 242.5t45 225t64.5 190.5t77 141q25 35 47.5 65.5t47 52t54 32.5t70.5 9q43 -4 68.5 -25.5t35 -53t4.5 -68.5t-20 -68q-29 -59 -63.5 -132t-64 -162t-49 -194.5t-19.5 -230.5q0 -162 26.5 -287.5t66.5 -224t86 -172t85 -131.5l-217 -123 q-80 55 -145.5 152.5t-113.5 218.5t-75 261.5t-27 281.5z" />
<glyph unicode=")" horiz-adv-x="735" d="M76 1483l217 123q80 -55 145.5 -152.5t113.5 -218.5t74.5 -261t26.5 -282q0 -123 -16 -242.5t-45 -225t-66 -190.5t-75 -140q-25 -35 -47.5 -66t-47 -52.5t-54.5 -33.5t-71 -8q-43 2 -68.5 24.5t-34.5 54t-5 68.5t20 68q29 59 64 132t64.5 162t49 194.5t19.5 230.5 q0 162 -26.5 287.5t-66.5 224t-86 172t-85 131.5z" />
<glyph unicode="*" horiz-adv-x="1077" d="M102 1330q-4 44 15.5 81t59.5 57.5t91 4.5q25 -10 51.5 -36t52 -56.5t46 -60.5t31.5 -44q-6 16 -18.5 49t-24 70t-19.5 74.5t-8 62.5q4 57 45 83.5t90 24.5t89 -29.5t42 -74.5q0 -18 -7 -53t-18.5 -74t-24.5 -76t-24 -57q8 12 31 43t50.5 63.5t55 59t48.5 33.5 q51 14 92 -8.5t60.5 -61.5t15.5 -82t-41 -72q-29 -20 -67 -31.5t-76 -17.5t-69.5 -8t-47.5 -4q16 -2 51 -5t73.5 -10.5t75.5 -18.5t60 -32q33 -31 36 -77t-16.5 -85.5t-59.5 -64.5t-91 -8q-20 6 -47 32.5t-53.5 58.5t-49 62.5t-31.5 44.5q10 -20 23.5 -51.5t25 -67.5 t18.5 -70t5 -60q-4 -47 -43 -72t-86 -25t-87 26t-44 81q0 31 7 65.5t18.5 68.5t22.5 62.5t18 47.5q-10 -16 -31 -46t-46.5 -60t-52 -55.5t-51.5 -35.5q-49 -16 -88 7.5t-58.5 63.5t-16.5 85.5t34 74.5q18 14 54 25.5t75 20t76 12.5t57 6q-20 2 -56 7t-75 13.5t-73.5 19.5 t-53.5 25q-37 31 -41 75z" />
<glyph unicode="+" horiz-adv-x="1107" d="M92 606q0 84 54.5 119t121.5 35h158v180q0 78 41 119t113 41q43 0 72.5 -15.5t48 -40t26.5 -56.5t8 -64v-164h158q68 0 122 -35t54 -119q0 -150 -162 -149h-172v-172q0 -33 -9 -65t-28.5 -55.5t-49.5 -37.5t-73 -14q-72 -2 -111.5 40t-39.5 121v183h-170q-162 0 -162 149 z" />
<glyph unicode="," horiz-adv-x="731" d="M143 203q0 78 34 125t85 67.5t108.5 17.5t104.5 -26q49 -25 77 -64.5t34 -88t-6.5 -98.5t-42.5 -95q-27 -41 -73 -87t-100.5 -91t-111.5 -83t-109 -65v488z" />
<glyph unicode="-" d="M123 639q0 86 54 126t122 40h397q68 0 122 -40t54 -126q0 -72 -42 -119t-119 -47h-426q-78 0 -120 47t-42 119z" />
<glyph unicode="." horiz-adv-x="706" d="M119 205q0 49 18.5 92t51 73.5t76.5 49t95 18.5t94.5 -17.5t76 -49t51 -74.5t18.5 -92t-18.5 -92t-51 -74t-76.5 -48.5t-94 -17.5q-51 0 -95 17.5t-76.5 49.5t-51 74t-18.5 91z" />
<glyph unicode="/" horiz-adv-x="1128" d="M125 0q156 350 283 639q55 123 108 244t98 220t77 169.5t44 93.5q31 59 73 91t110 32q37 0 68.5 -15.5t52 -40t25.5 -57.5t-11 -67q-8 -18 -39 -84t-75 -161t-97.5 -211t-108.5 -235q-129 -279 -289 -618h-319z" />
<glyph unicode="0" horiz-adv-x="1288" d="M70 702q0 182 41 321.5t114.5 233t178 141.5t233.5 48q131 0 238.5 -39t184.5 -125t119 -222t42 -329q0 -203 -42 -346t-120 -232.5t-188.5 -130t-247.5 -40.5q-141 0 -246 50t-172.5 144t-101 227t-33.5 299zM410 715q0 -213 54 -331t173 -118q125 0 182.5 112t57.5 329 q0 119 -16.5 202.5t-47.5 137t-73 77t-93 23.5q-111 0 -174 -104.5t-63 -327.5z" />
<glyph unicode="1" horiz-adv-x="882" d="M33 1249q0 86 54 132t146 46h330q72 0 116 -33.5t44 -119.5v-1274h-358v1075h-138q-94 0 -144 44t-50 130z" />
<glyph unicode="2" horiz-adv-x="1179" d="M49 240q0 76 66.5 165t163.5 173q63 57 136.5 115.5t138 113.5t111 102t52.5 82q10 51 -4.5 82t-44 48.5t-69.5 22.5t-79 5q-88 0 -175 -27.5t-161 -66.5l-98 235q51 51 114.5 84t133 51.5t140.5 24.5t138 6q106 0 199.5 -28.5t161 -86t100.5 -141.5t21 -194 q-10 -80 -64.5 -161t-126.5 -153q-29 -29 -88 -79t-126.5 -104t-133.5 -105.5t-106 -84.5h542q76 0 111 -33.5t35 -125.5q0 -29 -11.5 -57.5t-31 -51t-48 -37t-65.5 -14.5h-711q-66 0 -107.5 20.5t-67 53t-36 76t-10.5 90.5z" />
<glyph unicode="3" horiz-adv-x="1187" d="M49 242q-6 113 60 151q49 29 89 13.5t76 -46.5q39 -33 111 -61.5t156 -28.5q117 0 177 55.5t52 135.5q-6 51 -40 78.5t-86 39t-114.5 11.5t-123.5 -2v252q139 6 222 54t83 120q0 70 -50.5 100.5t-121.5 30.5q-47 0 -99.5 -8.5t-100.5 -22.5t-90 -30.5t-67 -32.5l-84 219 q33 33 81 66.5t109.5 59t135.5 42t158 16.5q125 0 216 -29.5t149.5 -81t86 -122t27.5 -152.5q0 -94 -49.5 -173t-149.5 -134q135 -23 201.5 -102.5t66.5 -206.5q0 -121 -47 -210t-129 -148.5t-192.5 -89.5t-237.5 -30q-104 0 -197.5 20.5t-170.5 74.5q-39 27 -70 73.5 t-37 98.5z" />
<glyph unicode="4" horiz-adv-x="1255" d="M31 541q18 31 56 86t86 124.5t103.5 147.5t108.5 152.5t100 140t80 111.5q29 39 54.5 65.5t56.5 42.5t67.5 22.5t85.5 6.5q35 0 69 -12.5t59.5 -38t42 -64.5t16.5 -92v-658h104q31 0 52.5 -13t36 -33.5t21.5 -44t7 -44.5q0 -29 -8 -58.5t-23.5 -52t-39 -36.5t-54.5 -14 h-100v-279h-316v266h-549zM391 551h314v504z" />
<glyph unicode="5" horiz-adv-x="1175" d="M41 119l94 248q31 -18 78 -37t101.5 -32t111.5 -19.5t113 -2.5q115 8 177 55.5t62 141.5q0 41 -17.5 65.5t-45 39t-62.5 19.5t-67 9q-51 6 -90 6t-79 -4t-86 -10t-112 -12l-102 172l59 667h746q94 0 124.5 -42t30.5 -117q0 -72 -54 -121t-151 -49h-419l-19 -222 q59 6 116.5 9.5t88.5 3.5q100 0 187 -21.5t150.5 -68.5t99.5 -122t36 -181q0 -111 -38 -206t-110.5 -164t-180 -109t-244.5 -40q-170 0 -301.5 33t-196.5 111z" />
<glyph unicode="6" horiz-adv-x="1218" d="M61 567q0 113 8.5 204t26 167t47 140.5t72.5 123.5q96 131 223 183.5t273 52.5q41 0 100 -3t119 -28q72 -29 93 -81t8 -101t-57 -83t-102 -24q-23 2 -53.5 8.5t-65 9.5t-69.5 2t-66 -14q-78 -31 -119.5 -89t-60.5 -111q-18 -53 -24 -105q41 33 121.5 60.5t216.5 27.5 q201 -2 314.5 -114.5t113.5 -317.5q0 -76 -19.5 -139.5t-50.5 -113.5t-67.5 -87.5t-71.5 -62.5q-131 -94 -381 -95q-117 0 -214 41t-167 118t-109 186.5t-39 244.5zM403 555q0 -68 16.5 -121t46.5 -90t67.5 -56.5t80.5 -19.5q74 0 131.5 32t79.5 97q10 31 11.5 70t-13 75 t-46.5 64.5t-89 36.5q-84 12 -163 -7.5t-122 -60.5v-20z" />
<glyph unicode="7" horiz-adv-x="1056" d="M16 1268.5q2 60.5 39 109.5t109 49h674q203 0 202 -206q0 -25 -10 -66t-26.5 -88t-37 -99.5t-38.5 -99.5l-363 -868h-393l487 1110h-497q-76 0 -112 49t-34 109.5z" />
<glyph unicode="8" horiz-adv-x="1239" d="M72 403q0 47 12 99.5t41 98.5t74.5 82t113.5 54q-37 12 -70.5 42t-58 71t-39 91t-14.5 106q0 100 40 178t107.5 130t157.5 78.5t191 26.5q88 0 177 -21.5t160.5 -68.5t117.5 -120.5t46 -178.5q0 -66 -16 -118t-44 -94t-61.5 -70.5t-70.5 -45.5q68 -12 115 -45.5t77.5 -80 t45 -100.5t14.5 -109q0 -98 -37 -178t-109.5 -137.5t-177 -88.5t-239.5 -31q-268 0 -410.5 108.5t-142.5 321.5zM424 432q0 -78 46 -134t148 -56q96 0 152.5 54t56.5 132q0 33 -12 64.5t-36.5 56t-62.5 39t-87 14.5q-98 0 -151.5 -48t-53.5 -122zM459 1026q0 -78 50 -117 t116 -39q70 0 123 43t53 121q0 88 -49.5 125t-118.5 37q-31 0 -62.5 -9t-56.5 -29.5t-40 -53.5t-15 -78z" />
<glyph unicode="9" horiz-adv-x="1218" d="M74 954q0 82 19.5 146.5t49 114t66.5 84t72 59.5q66 47 147.5 67.5t208.5 20.5q113 0 210 -42t166.5 -121t109.5 -192.5t40 -256.5q0 -102 -6 -197.5t-25.5 -181.5t-54.5 -162t-92 -139q-78 -86 -192.5 -128t-257.5 -42q-119 0 -229.5 24.5t-211.5 102.5l101 241 q72 -33 150.5 -57.5t148.5 -24.5q84 0 156.5 26t119.5 103q27 43 38 103.5t15 128.5q-10 -16 -33.5 -37t-62.5 -40t-94 -32.5t-129 -13.5q-94 0 -173 31.5t-136.5 90t-89 140.5t-31.5 184zM397.5 977q-4.5 -43 5 -81t31 -68.5t58.5 -41.5q47 -14 96 -14t94 12.5t81 37 t58 61.5q0 2 2 2q0 74 -18.5 126t-48 83.5t-68.5 47t-82 15.5q-59 0 -111.5 -19.5t-78.5 -82.5q-14 -35 -18.5 -78z" />
<glyph unicode=":" horiz-adv-x="755" d="M143 207q0 47 18.5 88t49.5 71.5t74 48t92 17.5t92 -17.5t73.5 -47t49 -70.5t18.5 -90t-18.5 -90t-49 -71t-73.5 -47t-92 -17t-92 17t-74 48t-49.5 72t-18.5 88zM145 879q0 47 18.5 88t49.5 71.5t74 48t92 17.5t92 -17.5t73.5 -47t49 -70.5t18.5 -90t-18.5 -90t-49 -71 t-73.5 -47.5t-92 -17.5t-92 17.5t-74 48.5t-49.5 72t-18.5 88z" />
<glyph unicode=";" horiz-adv-x="753" d="M143 879q0 47 18.5 88t49.5 71.5t74 48t92 17.5t92 -17.5t73.5 -47t49 -70.5t18.5 -90t-18.5 -90t-49 -71t-73.5 -47.5t-92 -17.5t-92 17.5t-74 48.5t-49.5 72t-18.5 88zM158 203q0 78 33.5 125t84 67.5t108.5 17.5t105 -26q51 -25 78 -65.5t33 -89t-7 -98.5t-42 -93 q-25 -39 -70 -85t-100 -91t-113.5 -85t-109.5 -65v488z" />
<glyph unicode="=" horiz-adv-x="1132" d="M96 367q0 84 54.5 119.5t121.5 35.5h625q68 0 122 -35.5t54 -119.5q0 -72 -42 -113t-120 -41h-653q-78 0 -120 41t-42 113zM96 811q0 84 54.5 120t121.5 36h625q68 0 122 -36t54 -120q0 -72 -42 -113t-120 -41h-653q-78 0 -120 41t-42 113z" />
<glyph unicode="?" horiz-adv-x="966" d="M37 1284q51 51 110.5 85t122 52.5t125 25.5t121.5 7q98 0 179 -26.5t136.5 -78t81 -126t15.5 -168.5q-8 -74 -56.5 -134.5t-104.5 -119t-102.5 -121t-50.5 -141.5h-307q-20 68 -8 123t42 102t70 85t75.5 70.5t62 60.5t29.5 52q2 31 -12.5 51.5t-39 31.5t-56.5 15.5 t-62 4.5q-57 0 -131 -22.5t-148 -61.5zM236 193q0 47 17 86.5t48 69.5t73 47.5t91 17.5q98 0 162.5 -62.5t64.5 -158.5q0 -47 -17.5 -87t-48 -70t-72.5 -46.5t-89 -16.5q-49 0 -91 17.5t-73 46.5t-48 69t-17 87z" />
<glyph unicode="@" horiz-adv-x="1968" d="M115 498q-4 168 37 305t113.5 244.5t169.5 185.5t205 129t218.5 75.5t208.5 24.5q178 0 329.5 -41t264.5 -126t179.5 -215t74.5 -308q8 -158 -28 -274.5t-99.5 -195.5t-145 -120t-167.5 -45q-222 -12 -281 148q-49 -84 -117.5 -115t-138.5 -31q-84 0 -149.5 32t-108.5 88 t-64.5 134t-15.5 168q6 102 41 187.5t95.5 145.5t144.5 93t186 33q121 0 201 -28.5t129 -63.5q-4 -72 -6 -159t-4.5 -169t-4.5 -150.5t-4 -101.5q41 -23 100.5 -16.5t104.5 43.5q57 47 84 125t31 223q2 104 -34 200.5t-112.5 172t-196.5 121t-284 45.5q-147 0 -278 -50.5 t-230.5 -145.5t-157 -231.5t-57.5 -310.5q0 -180 56.5 -300t145.5 -192.5t199.5 -103t223.5 -30.5q117 0 202 27.5t132 49.5l92 -149q-158 -143 -475 -143q-70 0 -155 15t-173 52t-173 97.5t-151.5 150.5t-109.5 214t-47 286zM836 561q-2 -41 5 -79t26.5 -67.5t52 -48 t81.5 -18.5q29 0 59 11.5t53.5 34t38.5 54t15 72.5l13 268q-16 14 -53 21.5t-72 7.5q-51 0 -91 -21.5t-68 -57.5t-43 -82t-17 -95z" />
<glyph unicode="A" horiz-adv-x="1474" d="M121 0v807q0 176 44 300t125 201.5t195.5 113.5t255.5 36q133 0 246 -31.5t196 -105.5t129 -195.5t46 -302.5v-823h-365v344h-504v-344h-368zM487 659h506v158q0 63 -12 118.5t-41 95.5t-76 62.5t-116 22.5q-74 0 -124.5 -23.5t-80 -64.5t-43 -95t-13.5 -114v-160z" />
<glyph unicode="B" horiz-adv-x="1396" d="M129 285v1140h569q109 0 208.5 -14t174 -54t118.5 -111.5t44 -186.5q0 -98 -34.5 -177t-110.5 -120q137 -43 192.5 -132t55.5 -206q0 -109 -43 -187.5t-120 -132t-184.5 -79t-238.5 -25.5h-344q-84 0 -139.5 20.5t-88 57.5t-46 89t-13.5 118zM489 301h277 q98 0 151.5 28.5t53.5 121.5q0 80 -57.5 112.5t-149.5 32.5h-275v-295zM492 850h192q98 0 150.5 34t52.5 111q0 80 -44 113t-143 33h-208v-291z" />
<glyph unicode="C" horiz-adv-x="1331" d="M70 702q0 162 44 298.5t134 234.5t228 153.5t329 55.5q88 0 170 -18.5t153 -61.5q33 -20 61 -48t43 -60q16 -34 16 -72q0 -35 -17 -72q-41 -79 -133 -79q-51 0 -119 24q-31 10 -81 32.5t-136 22.5q-80 0 -140.5 -28.5t-100.5 -81t-59.5 -126t-19.5 -161.5q0 -102 25 -173 t69 -117t106.5 -66.5t135.5 -20.5q127 0 238.5 26.5t173.5 75.5l123 -262q-86 -84 -230.5 -137t-330.5 -53q-156 0 -282 45t-215 135t-137 224t-48 310z" />
<glyph unicode="D" horiz-adv-x="1488" d="M123 313v1112h551q360 0 556.5 -170t196.5 -528q0 -195 -57 -332t-160.5 -225t-248 -129t-320.5 -41h-215q-90 0 -148.5 24.5t-93 67.5t-48 99.5t-13.5 121.5zM498 334h161q193 0 296.5 90t103.5 301q0 193 -99.5 292t-316.5 99h-145v-782z" />
<glyph unicode="E" horiz-adv-x="1284" d="M125 250v1175h1073v-323h-711v-217h359q92 0 142 -35q48 -34 48 -109v-6q0 -76 -46 -119t-138 -43h-365v-241h715v-332h-807q-123 0 -196.5 57.5t-73.5 192.5z" />
<glyph unicode="F" horiz-adv-x="1284" d="M141 0v1425h930q182 0 182 -161q0 -80 -51 -125t-137 -45h-553v-281h541v-344h-541v-469h-371z" />
<glyph unicode="G" horiz-adv-x="1484" d="M82 702q0 162 46 300.5t140 238.5t237.5 157.5t338.5 57.5q154 0 262 -33.5t186 -87.5l-106 -282q-47 23 -138.5 44t-209.5 21q-106 0 -180 -30.5t-120 -83t-66.5 -123t-20.5 -152.5q0 -109 28.5 -187.5t77.5 -130t115.5 -76t142.5 -24.5q37 0 74 4t69.5 10.5t56 14.5 t34.5 14v297q0 33 10 65t30.5 57.5t52.5 40.5t75 15q70 0 121 -44t51 -146v-489q-63 -53 -140.5 -86t-155 -50.5t-153.5 -23.5t-137 -6q-168 0 -302 46t-227.5 136t-142.5 225t-49 311z" />
<glyph unicode="H" horiz-adv-x="1540" d="M143 0v1251q0 102 57.5 148.5t139.5 46.5q86 0 138 -47t52 -158v-371h510v555h377v-1247q0 -104 -57 -150t-139 -46q-86 0 -137.5 50t-51.5 154v353h-508v-539h-381z" />
<glyph unicode="I" horiz-adv-x="1140" d="M76 1264q0 161 186 161h2h623q92 0 142 -42t50 -121q0 -80 -50 -121t-136 -41h-139v-789h282v-311h-930v311h289v789h-133q-86 0 -136 41t-50 123z" />
<glyph unicode="J" horiz-adv-x="1228" d="M59 141l95 283q14 -8 46.5 -25.5t79 -34t102.5 -29.5t118 -13q61 0 105 9t73 35.5t42 71.5t13 117v543h-391q-86 0 -140.5 40t-54.5 126t54.5 123.5t146.5 37.5h758v-976q0 -223 -140.5 -347.5t-396.5 -124.5q-74 0 -146.5 8.5t-140 28t-125 50t-98.5 77.5z" />
<glyph unicode="K" horiz-adv-x="1406" d="M143 0v1425h375v-589l414 589h442q-131 -172 -219 -287.5t-148.5 -192.5t-98.5 -126t-66 -88q84 -88 178 -170t172 -153q35 -33 63.5 -59.5t50 -53.5t34 -59.5t12.5 -77.5q0 -25 -8.5 -50.5t-27 -49t-47 -40t-71.5 -22.5q-23 -2 -44 -2q-34 0 -64 6q-48 10 -84.5 29.5 t-64.5 45t-48 50.5q-47 53 -99.5 115.5t-102.5 124t-95 117t-78 98.5v-580h-375z" />
<glyph unicode="L" horiz-adv-x="1214" d="M139 0v1427h377v-1077h508q68 0 112 -48t44 -134q0 -70 -44 -119t-153 -49h-844z" />
<glyph unicode="M" horiz-adv-x="1882" d="M147 0v1163q0 135 67 208t189 73q63 0 111.5 -16.5t85.5 -44t64.5 -65.5t50.5 -83q18 -37 36.5 -87t38 -105.5t38 -112t36.5 -107.5l97 -268q16 57 31.5 113.5t31.5 113.5q14 49 32.5 106.5t40 116t43 112.5t40.5 95q20 45 44.5 88t60.5 75t85 51.5t117 19.5 q123 0 197.5 -66.5t74.5 -224.5v-969q0 -92 -44 -145t-136 -53q-170 0 -170 192v824q-25 -76 -52.5 -163t-49.5 -153q-41 -113 -73 -215t-60 -162q-41 -86 -93.5 -116.5t-124.5 -30.5q-66 0 -121 26.5t-98 110.5q-14 25 -31.5 68t-38 95t-41 110.5t-40.5 113.5l-101 307 v-995h-338z" />
<glyph unicode="N" horiz-adv-x="1558" d="M131 0v1229q0 57 15.5 95t42 60.5t62.5 30.5t75 8q61 0 107 -23.5t88 -66.5t84 -105t93 -138q23 -33 68 -102.5t100.5 -153.5t112.5 -174.5t104 -163.5v929h336v-1237q0 -53 -18.5 -91t-48 -61.5t-68.5 -33.5t-80 -10q-63 0 -106 17.5t-80 52t-75 87t-91 123.5 q-41 53 -87 124t-96.5 148t-100.5 155.5t-95 150.5v-850h-342z" />
<glyph unicode="O" horiz-adv-x="1570" d="M70 705q0 174 48 313t140 236.5t225 149.5t303 52q154 0 284 -45t226.5 -135t150.5 -227.5t54 -323.5q0 -184 -53 -323.5t-150.5 -233.5t-231.5 -142.5t-296 -48.5q-170 0 -300 51.5t-219 145.5t-135 228.5t-46 302.5zM453 713q0 -190 85 -305t261 -115q90 0 154.5 31.5 t104.5 87t58.5 131.5t18.5 162q0 211 -92.5 315t-251.5 104q-166 0 -252 -109.5t-86 -301.5z" />
<glyph unicode="P" horiz-adv-x="1380" d="M143 164v1261h588q281 0 436.5 -118.5t155.5 -378.5q0 -141 -43 -245.5t-122 -174.5t-190.5 -104.5t-248.5 -34.5h-221v-213q0 -92 -42 -136.5t-137 -44.5q-86 0 -131 42t-45 147zM496 692h231q229 0 229 221q0 63 -18 103.5t-50 63t-76 31.5t-93 9h-223v-428z" />
<glyph unicode="Q" horiz-adv-x="1617" d="M82 705q0 174 48 313t140 236.5t225.5 149.5t303.5 52q154 0 283.5 -45t226 -135t150.5 -227.5t54 -323.5q0 -147 -34.5 -265t-98.5 -208q39 -41 73 -79t50 -58q35 -47 47 -90q9 -28 9 -54q0 -14 -3 -27q-6 -38 -26.5 -70t-46.5 -52q-35 -27 -79 -36q-25 -5 -50 -5 q-20 0 -40 3q-46 7 -87 28.5t-70 58.5l-115 141q-123 -35 -260 -35q-170 0 -300 51.5t-219 145.5t-135 228.5t-46 302.5zM465 713q0 -190 85 -305t261 -115q90 0 154.5 31.5t104.5 87t58.5 131.5t18.5 162q0 211 -92 315t-252 104q-166 0 -252 -109.5t-86 -301.5z" />
<glyph unicode="R" horiz-adv-x="1370" d="M123 0v1194q0 106 63.5 169.5t161.5 63.5h383q121 0 223.5 -27.5t176 -85t115.5 -146.5t42 -212q0 -94 -24.5 -169.5t-63.5 -132t-87 -93.5t-95 -55q25 -23 35 -31t25.5 -20.5t41 -34t80.5 -70.5q61 -53 95 -97t34 -106q0 -53 -36 -100t-130 -57q-18 -2 -35 -2 q-58 0 -108 26q-66 34 -141 131q-49 63 -97.5 133t-89.5 130h-213v-408h-356zM475 707h221q68 0 113 20.5t70.5 51t37 69.5t11.5 76q0 102 -62.5 146t-156.5 44h-234v-407z" />
<glyph unicode="S" horiz-adv-x="1267" d="M66 131l77 305q39 -27 94.5 -51.5t118 -42.5t129 -29.5t127.5 -11.5q39 0 78 6t71 19.5t51 38t19 61.5q0 57 -58 83t-189 54q-92 20 -179.5 50t-154 79t-107.5 123t-41 182q0 98 33 183.5t100.5 149t171 99t244.5 35.5q92 0 182.5 -16t157.5 -45q137 -61 152 -162 q4 -29 -2 -58.5t-24.5 -56t-51.5 -43t-80 -16.5q-41 0 -78 12.5t-79 25.5t-92 25.5t-118 12.5q-100 0 -144 -35t-44 -88q0 -41 27.5 -65.5t77 -43t115 -33t141.5 -32.5q92 -23 166.5 -54.5t129 -77.5t83 -110.5t28.5 -152.5q0 -229 -153.5 -352.5t-423.5 -123.5 q-197 0 -343.5 44t-211.5 112z" />
<glyph unicode="T" horiz-adv-x="1339" d="M45 1098v327h1251v-327h-438v-926q0 -57 -18.5 -95t-48 -59.5t-64.5 -29.5t-68 -8q-31 0 -63.5 7t-60 28.5t-45 60.5t-17.5 100v922h-428z" />
<glyph unicode="U" horiz-adv-x="1501" d="M123 612v813h377v-813q0 -147 59 -229t191 -82q136 0 200 84q61 79 60 214v17v641q4 104 47 147.5t137 43.5q86 0 136 -42t50 -153v-628q0 -168 -45 -290t-128 -201t-200.5 -116.5t-263.5 -37.5q-145 0 -259.5 36.5t-194.5 113.5t-123 196.5t-43 285.5z" />
<glyph unicode="V" horiz-adv-x="1517" d="M25 1423h421l353 -1077q4 14 19.5 67.5t35.5 129t46 166t51.5 180.5t47 170t37.5 137q20 68 41 117t49 81q27 32 66 46q34 12 82 12h14q180 -8 180 -168q0 -39 -12 -90t-26 -94q-20 -57 -54.5 -152.5t-75 -207t-83.5 -229.5t-81 -221.5t-67 -181t-41 -108.5h-471 q-12 31 -38.5 100.5t-62.5 164.5t-78 208t-86 230.5t-87 232.5t-79 211t-62.5 169t-38.5 107z" />
<glyph unicode="W" horiz-adv-x="2002" d="M35 1423h391l207 -1048q49 176 101 368.5t112 391.5h334q66 -188 123 -387t114 -381q27 174 50.5 312t42 243.5t31.5 181.5t20 127q16 115 71.5 171t141.5 56q98 0 147 -60q34 -41 34 -118q0 -35 -7 -76q-14 -76 -36 -175t-47.5 -209.5t-53 -227.5t-53 -225.5t-49 -203.5 t-40.5 -163h-455q-29 88 -71.5 243.5t-122.5 397.5q-59 -219 -101 -381t-71 -260h-467q-16 59 -46 175t-68 262.5t-79 310t-75 321.5q-6 29 -18.5 79t-24 102.5t-21.5 100.5t-14 72z" />
<glyph unicode="X" horiz-adv-x="1476" d="M18 1425h474l262 -516l200 353q55 98 107.5 147t138.5 49q35 0 70 -10t62.5 -31.5t45 -52.5t17.5 -72q0 -49 -19.5 -95t-50.5 -91q-68 -98 -150.5 -196.5t-160.5 -198.5l446 -711h-463l-270 504q-31 -53 -63.5 -112.5t-65.5 -117t-62.5 -106.5t-56.5 -82 q-49 -61 -110.5 -88t-114.5 -27q-33 0 -65.5 9.5t-59.5 30t-43 51t-16 73.5q0 45 21.5 96.5t62.5 102.5q76 96 157.5 192.5t147.5 188.5z" />
<glyph unicode="Y" horiz-adv-x="1351" d="M-55 1425h436l332 -653q31 74 57.5 135.5t52 118.5t53 115.5t60.5 126.5q49 102 98 148t129 46q82 0 136.5 -36.5t54.5 -122.5q0 -76 -39 -152q-27 -49 -73 -130t-99 -170t-106.5 -175t-92.5 -146l-49 -75v-455h-375v442q-16 20 -57 84t-94.5 154t-114.5 195.5 t-119.5 208t-109 192.5t-80.5 149z" />
<glyph unicode="Z" horiz-adv-x="1355" d="M125 0v301l731 803h-700v323h811q76 0 129 -14t87 -37.5t52 -55.5t25 -69q3 -23 3 -46q-1 -55 -17 -109q-24 -76 -103 -170q-25 -29 -67 -75t-93 -99.5t-106.5 -112.5t-108.5 -114.5t-99 -103.5t-77 -81h493q63 0 105.5 -9t66 -29.5t32.5 -53.5t9 -78q0 -88 -58 -129 t-189 -41h-926z" />
<glyph unicode="^" horiz-adv-x="5525" d="M494 0l358 1425h414l-285 -1073h483q74 0 104.5 -53t14.5 -131q-16 -86 -73.5 -127t-149.5 -41h-866zM1731 0l176 721q35 129 98 173t145 44q39 0 74 -13.5t57.5 -43t29.5 -74.5t-9 -109l-174 -698h-397zM2014 1219q-5 43 5 84q23 86 92.5 135t167.5 49q43 0 80 -12.5 t63.5 -38t39 -64.5t4.5 -92q-8 -55 -33 -96t-60.5 -70t-78.5 -43t-90 -14q-61 0 -101.5 23.5t-62 59.5t-26.5 79zM2619 1425h390l81 -960l490 960h405q-82 -156 -157.5 -298t-145.5 -273q-59 -111 -119.5 -222.5t-112.5 -205.5t-93 -165t-62 -101q-35 -51 -77 -83t-85 -50.5 t-85 -24.5t-76 -6q-41 0 -77 8t-65.5 31.5t-51 63.5t-32.5 104q-6 31 -14 99.5t-18.5 159.5t-20.5 197.5t-20 214.5zM3867 248q51 199 92 354.5t72.5 275t55 206.5t40.5 149q18 72 30.5 120t20.5 72h1032l-80 -315h-647l-59 -217h290q18 0 47 -7t53.5 -25.5t40 -52.5 t5.5 -87q-29 -152 -221 -152h-295l-60 -229h682l-90 -340h-798q-129 0 -187.5 56.5t-23.5 191.5z" />
<glyph unicode="_" horiz-adv-x="1390" d="M74 -143q0 43 14 70.5t39 44t56.5 22.5t66.5 6h895q33 0 64.5 -6t56 -22.5t40 -44t15.5 -70.5q0 -143 -162 -144h-923q-162 0 -162 144z" />
<glyph unicode="a" horiz-adv-x="1245" d="M72 518q0 147 43 260t120.5 191t189.5 117.5t249 39.5q74 0 143.5 -11t130 -28.5t107.5 -39t78 -43.5v-1004h-330v143q-27 -53 -70 -83.5t-89 -46t-88 -19.5t-67 -4q-104 0 -183 40t-131 110.5t-77.5 166.5t-25.5 211zM412 543q0 -41 8 -86t30.5 -83t62.5 -63.5 t101 -25.5q35 0 69 9t59.5 30.5t41 56.5t15.5 84v338q-20 16 -60.5 26.5t-83.5 10.5q-66 0 -111.5 -26t-74.5 -67.5t-43 -95t-14 -108.5z" />
<glyph unicode="b" horiz-adv-x="1265" d="M113 109v1388h327v-526q33 59 112 96t196 37q203 0 324.5 -128t121.5 -388q0 -156 -45 -270.5t-129 -189.5t-203 -111.5t-266 -36.5q-160 0 -275.5 36.5t-162.5 92.5zM440 313q40 -34 133 -34h5q135 0 205.5 81.5t70.5 217.5q0 63 -16.5 108t-44 72.5t-62.5 40t-74 12.5 q-47 0 -86 -15.5t-68.5 -40t-46 -56t-16.5 -64.5v-322z" />
<glyph unicode="c" horiz-adv-x="1099" d="M63 555q0 119 39 223.5t115 182t186.5 123.5t253.5 46q59 0 127 -11t126.5 -36t97.5 -69.5t39 -110.5q0 -70 -50.5 -114t-115.5 -44q-37 0 -63.5 11.5t-53.5 24t-57.5 23.5t-73.5 11q-111 0 -168 -69.5t-57 -186.5q0 -78 25.5 -128t66.5 -79.5t90 -42t96 -12.5 q43 0 92 10t93 24.5t79 30t49 25.5l84 -260q-27 -31 -74.5 -58.5t-108 -47t-131.5 -32t-140 -12.5q-268 0 -417 145.5t-149 432.5z" />
<glyph unicode="d" horiz-adv-x="1277" d="M72 520q0 106 28.5 212t92 191t165 138t246.5 53q23 0 52.5 -3t60.5 -9t56.5 -15.5t41.5 -23.5v434h350v-1497h-348v162q-41 -82 -124 -127t-195 -45q-92 0 -170 29.5t-135.5 93t-89 165t-31.5 242.5zM408 535q0 -113 49 -182.5t153 -69.5q33 0 69 10t64.5 36.5t48 74 t19.5 118.5v248q-18 23 -59 41t-97 18q-66 0 -111.5 -25.5t-76.5 -67.5t-45 -94t-14 -107z" />
<glyph unicode="e" horiz-adv-x="1198" d="M61 551q0 125 38 231.5t110 184t176 122t238 44.5q244 0 379 -124t135 -360q0 -72 -13.5 -120t-27.5 -70h-690q4 -39 18 -75t44 -63.5t74 -45t105 -17.5q57 0 98 12.5t76 27.5t67 28.5t70 13.5q37 0 63 -12.5t41 -32t21.5 -43t6.5 -43.5q0 -55 -37 -99t-99.5 -75 t-148.5 -48.5t-184 -17.5q-125 0 -228.5 36t-177.5 107.5t-114 181t-40 257.5zM410 672h395v14q0 77 -42 130q-46 58 -151 58q-94 0 -145 -60t-57 -142z" />
<glyph unicode="f" horiz-adv-x="907" d="M61 766v315h158q0 49 4 109.5t19.5 120t45 113t83.5 89.5q43 29 103.5 47.5t125.5 22.5q14 1 28 1q49 0 96 -11q60 -14 103 -53q27 -25 39.5 -55.5t12.5 -61.5t-12.5 -57.5t-37.5 -42.5q-27 -18 -55.5 -20.5t-59 -2.5t-60 -4t-58.5 -25q-27 -16 -35 -55t-8 -115h307v-311 h-287v-770h-350v766h-162z" />
<glyph unicode="g" horiz-adv-x="1222" d="M63 567q0 125 38 228.5t112 177.5t182.5 113.5t249.5 39.5q70 0 140.5 -8t134 -23.5t115.5 -36t87 -44.5v-850q0 -283 -142 -428.5t-405 -145.5q-61 0 -124.5 13.5t-114.5 40t-84 68.5t-33 102q0 53 37 94t94 41q31 0 60.5 -10.5t59.5 -21.5t60.5 -21.5t65.5 -10.5 q115 0 159 77t44 196q-47 -45 -128 -73t-167 -28q-98 0 -180 36t-139.5 102.5t-89.5 161t-32 210.5zM401 571q0 -117 53.5 -180t151.5 -63q37 0 72 10t61.5 35.5t43 67.5t16.5 104v256q-16 8 -65.5 23.5t-108.5 15.5q-111 0 -167.5 -76t-56.5 -193z" />
<glyph unicode="h" horiz-adv-x="1282" d="M113 0v1497h344v-551q35 74 124 118t212 44q184 0 286.5 -104.5t102.5 -327.5v-512q0 -82 -46 -131t-135 -49q-78 0 -120.5 44t-42.5 136v395q0 49 -7.5 92t-27 74t-52 49.5t-83.5 18.5q-92 0 -152.5 -54.5t-60.5 -134.5v-604h-342z" />
<glyph unicode="i" horiz-adv-x="610" d="M92 1321q0 45 16.5 83t46 65.5t68.5 44t86 16.5q92 0 154.5 -58.5t62.5 -150.5t-62.5 -151.5t-154.5 -59.5q-47 0 -86 16.5t-68.5 44t-46 66.5t-16.5 84zM117 0v829q0 68 53 120t133 52q74 0 128 -47t54 -125v-829h-368z" />
<glyph unicode="j" horiz-adv-x="663" d="M-123 -344l51 276q33 -10 74 -15t66 -5q57 0 80.5 39t23.5 147v733q0 68 50 119t130 51q74 0 127 -46t53 -124v-743q0 -147 -30.5 -242.5t-85 -150.5t-127 -78t-154.5 -23q-104 0 -166.5 23t-91.5 39zM139 1325q0 45 17.5 83t46 65.5t68.5 43t87 15.5q92 0 154.5 -57.5 t62.5 -149.5t-62 -153.5t-155 -61.5q-47 0 -87 16.5t-68.5 46t-46 68.5t-17.5 84z" />
<glyph unicode="k" horiz-adv-x="1171" d="M113 0v1497h348v-792l309 393h410l-203 -240q-39 -47 -76 -93t-67.5 -84t-53 -65.5t-28.5 -35.5q33 -31 59.5 -53.5t52 -44t53 -45t66.5 -56.5q39 -35 70.5 -61.5t53 -52t33 -54.5t11.5 -68q0 -20 -6 -46.5t-24.5 -50t-52.5 -40t-87 -16.5q-47 0 -84 14t-66.5 37 t-55 51.5t-52.5 57.5q-59 66 -128 141.5t-126 148.5v-442h-356z" />
<glyph unicode="l" horiz-adv-x="616" d="M119 162v1335h364v-1333q0 -55 -18.5 -90t-45 -54.5t-59 -26.5t-59.5 -7t-58.5 6t-59 24.5t-46 53t-18.5 92.5z" />
<glyph unicode="m" horiz-adv-x="1892" d="M113 0v1098h342v-148q47 72 118.5 113t192.5 41q125 0 197.5 -48t105.5 -124q27 43 66 74.5t85 53t94 33t91 11.5q86 0 156.5 -18.5t121 -65.5t79 -128t28.5 -204v-688h-340v582q0 43 -7 78.5t-24.5 63.5t-47.5 43t-75 15q-86 0 -127 -55t-41 -137v-414q0 -88 -43 -136 t-129 -48q-162 0 -161 182v395q0 49 -6.5 90t-25 70t-50 45.5t-82.5 16.5q-47 0 -80 -18.5t-54.5 -49.5t-31.5 -69t-10 -76v-578h-342z" />
<glyph unicode="n" horiz-adv-x="1275" d="M113 0v1098h344v-150q37 76 130 117t204 41q86 0 157.5 -26.5t123.5 -81t82 -138.5t30 -196v-494q0 -80 -41 -132t-133 -52q-170 0 -170 180v420q0 59 -14.5 99t-38 63.5t-55.5 34t-66 10.5q-49 0 -88 -16.5t-67 -44t-42 -63.5t-14 -75v-594h-342z" />
<glyph unicode="o" horiz-adv-x="1267" d="M68 553q0 135 42 242.5t117.5 183.5t181 116t230.5 40q119 0 222.5 -38t179 -111t118.5 -179.5t43 -243.5q0 -139 -43 -247.5t-119.5 -183.5t-182 -115t-228.5 -40q-129 0 -232.5 41t-176.5 117t-112.5 182.5t-39.5 235.5zM403 567q0 -61 16.5 -112.5t46.5 -89t74 -59 t99 -21.5t99 21.5t74 60.5t45 89t15 109q0 129 -69.5 199t-167.5 70q-104 0 -168 -72t-64 -195z" />
<glyph unicode="p" horiz-adv-x="1259" d="M113 -176v1274h333v-148q25 43 63 74t83 49.5t95 26.5t99 8q92 0 169 -30.5t132.5 -93t86 -160t30.5 -232.5q0 -133 -32.5 -242.5t-97 -186.5t-159 -119t-219.5 -42q-31 0 -66.5 3t-70.5 11.5t-61.5 18.5t-38.5 26v-237q0 -88 -47 -133t-127 -45q-74 0 -123 45t-49 133z M459 344q27 -23 77 -36t101 -13q66 0 108.5 23.5t68.5 62.5t36 87t10 97q0 43 -7 88t-28.5 82t-58.5 60.5t-98 23.5q-27 0 -63 -8t-68.5 -30.5t-55 -61.5t-22.5 -103v-272z" />
<glyph unicode="q" horiz-adv-x="1261" d="M72 524q0 154 44 267.5t126 188.5t195.5 111.5t252.5 36.5q88 0 163 -13t133 -34.5t101 -48t68 -53.5v-1305h-340v451q-33 -61 -103.5 -95t-181.5 -34q-102 0 -186 32.5t-144.5 98.5t-94 165t-33.5 232zM418 545q0 -74 17.5 -121t46 -74.5t63.5 -38t71 -10.5 q94 0 144.5 53.5t50.5 118.5v326q-20 16 -60 25.5t-85 9.5q-70 0 -117 -24t-77 -63.5t-42 -92t-12 -109.5z" />
<glyph unicode="r" horiz-adv-x="888" d="M113 0v1098h333v-283q2 23 23 70q12 33 34.5 71.5t54.5 72.5t71 58.5t82 28.5q12 1 23 1q61 0 103 -36q50 -43 52 -135q0 -84 -50.5 -133t-120 -89t-141 -80t-112.5 -101v-543h-352z" />
<glyph unicode="s" horiz-adv-x="1040" d="M41 109l90 258q74 -43 174.5 -76t204.5 -33q149 0 149 75q0 26 -15 39t-42 22t-63.5 16.5t-77.5 17.5q-66 14 -134.5 33.5t-126 56.5t-93 96.5t-35.5 153.5q0 90 35.5 159.5t98 118t148.5 73t187 24.5q74 0 143.5 -13.5t124.5 -40t89 -67.5t34 -94t-34 -92t-105 -39 q-33 0 -68 11t-71 25.5t-73.5 25.5t-76.5 11q-51 0 -81 -22.5t-30 -56.5q0 -29 22.5 -47.5t58.5 -31t81 -20.5t90 -18q80 -18 144.5 -42t108.5 -60.5t67.5 -90t23.5 -131.5q0 -98 -37 -169.5t-103.5 -117t-157.5 -67t-199 -21.5q-150 0 -268 36t-183 98z" />
<glyph unicode="t" horiz-adv-x="937" d="M51 795v290h133v187l334 88v-275h340v-290h-342v-375q0 -61 32 -90t87 -29q39 0 62.5 9t62.5 8q51 0 88 -27t37 -98q0 -57 -28 -97.5t-72 -65t-101.5 -35.5t-118.5 -11q-84 0 -154.5 20.5t-120.5 64.5t-78 113.5t-28 169.5v443h-133z" />
<glyph unicode="u" horiz-adv-x="1269" d="M102 393v703h349v-596q0 -98 43 -146.5t122 -48.5q98 0 149.5 57.5t51.5 135.5v444q0 80 44 127t136 47q80 0 125 -42t45 -136v-938h-338v145q-72 -94 -167 -127.5t-185 -33.5q-80 0 -148.5 22.5t-118.5 71.5t-79 127t-29 188z" />
<glyph unicode="v" horiz-adv-x="1189" d="M-2 1092h360l254 -813l168 622q33 113 76 166t127 53q111 0 155 -70q26 -41 26 -97q0 -40 -13 -89q-18 -70 -49 -168t-68 -200.5t-73.5 -195.5t-67.5 -153q-27 -51 -58.5 -82.5t-68.5 -50t-78 -24.5t-84 -6q-117 0 -183.5 47t-113.5 139q-12 25 -32.5 78t-45 119.5 t-50 141.5t-48.5 146q-23 68 -40 124.5t-33.5 107.5t-31 101t-28.5 104z" />
<glyph unicode="w" horiz-adv-x="1767" d="M33 1092h360l172 -748l209 748h277q18 -66 76.5 -254.5t150.5 -497.5q35 203 64.5 343t46.5 212q14 57 26 99t29.5 70t44.5 41t70 15q12 1 24 1q107 -1 147 -67q27 -44 27 -109q0 -43 -12 -95q-16 -76 -46 -174t-61.5 -194.5t-62.5 -178.5t-49 -125q-27 -61 -52.5 -100 t-55 -59.5t-63.5 -27.5t-79 -7q-86 0 -138.5 35.5t-93.5 136.5q-18 45 -34.5 88t-30.5 91t-30.5 101t-35.5 119q-33 -127 -56 -215t-50 -168q-35 -104 -101.5 -144t-160.5 -40q-104 0 -161.5 53t-82.5 131q-8 23 -24.5 69t-38 107.5t-45 136t-46.5 158.5q-27 94 -59.5 214 t-54.5 235z" />
<glyph unicode="x" horiz-adv-x="1179" d="M-10 1098h409l181 -355q16 25 31.5 49.5t29.5 47.5q25 39 49.5 86.5t40.5 70.5q51 88 117 112q37 13 75 13q30 0 60 -8q45 -12 76 -41t42 -67q6 -22 6 -47q0 -18 -3 -37q-8 -45 -39 -91q-18 -29 -55 -74.5t-74 -92.5l-113 -121l357 -543h-410l-205 354l-65 -110 q-27 -45 -55.5 -89t-45.5 -69q-59 -80 -138 -110q-36 -13 -72 -13q-43 0 -85 19q-48 24 -66 58q-15 29 -15 60q1 6 1 13q4 39 23 78.5t43 72.5q8 10 41 53t72 93.5t74.5 97.5t48.5 63z" />
<glyph unicode="y" horiz-adv-x="1165" d="M-10 1098h366l250 -776q49 184 79 298.5t46.5 180t22.5 91.5t8 34q16 55 33.5 93t42 60.5t57.5 32.5t80 10q74 0 108.5 -25.5t46.5 -63.5q7 -24 7 -52q0 -16 -3 -33q-6 -47 -16 -90q-18 -78 -54 -190.5t-77 -231.5t-81 -229.5t-68 -181.5q-33 -84 -71 -155t-89 -122 t-122 -79.5t-169 -28.5t-181 24.5t-116 59.5l88 280q47 -18 99.5 -34.5t97.5 -16.5q16 0 36.5 4t42 18.5t42 42t34.5 74.5q-10 -1 -20 -1q-63 0 -105 34q-49 39 -96 125q-39 72 -84 183.5t-88 232t-82 236.5t-65 196z" />
<glyph unicode="z" horiz-adv-x="1107" d="M92 0v252l518 547h-497v299h694q55 0 92 -12.5t60.5 -33t35 -47t17.5 -57.5q6 -29 5 -55.5t-11.5 -55t-30 -59t-51.5 -69.5q-29 -33 -73 -78t-96.5 -96.5t-111.5 -108.5t-119 -115h353q100 0 135 -42t35 -111q0 -68 -38 -113t-141 -45h-776z" />
<glyph unicode="&#xa8;" horiz-adv-x="1323" d="M172 1415q0 82 56.5 137.5t142.5 55.5t142 -54.5t56 -138.5q0 -82 -57 -135t-141 -53q-86 0 -142.5 53t-56.5 135zM743 1415q0 82 57.5 137.5t143.5 55.5q84 0 140.5 -54.5t56.5 -138.5q0 -82 -57.5 -135t-139.5 -53q-86 0 -143.5 53t-57.5 135z" />
<glyph unicode="&#xad;" d="M123 639q0 86 54 126t122 40h397q68 0 122 -40t54 -126q0 -72 -42 -119t-119 -47h-426q-78 0 -120 47t-42 119z" />
<glyph unicode="&#xc4;" horiz-adv-x="1472" d="M117 0v807q0 176 44 300t125 201.5t195.5 113.5t255.5 36q133 0 246 -31.5t196 -105.5t129 -195.5t46 -302.5v-823h-365v344h-504v-344h-368zM143 1696q0 86 61.5 143t155.5 57q45 0 84 -15t68 -42t45 -63.5t16 -79.5t-16 -79t-46 -62.5t-69 -41t-82 -14.5 q-94 0 -155.5 55.5t-61.5 141.5zM483 659h506v158q0 63 -12 118.5t-41 95.5t-76 62.5t-117 22.5q-74 0 -124 -23.5t-79.5 -64.5t-43 -95t-13.5 -114v-160zM909 1696q0 43 16.5 78.5t46 63.5t68.5 43t86 15q45 0 84 -15t69 -42t46 -63.5t16 -79.5t-17 -79t-46 -62.5t-68 -41 t-84 -14.5q-92 0 -154.5 55.5t-62.5 141.5z" />
<glyph unicode="&#xd6;" horiz-adv-x="1595" d="M82 705q0 174 48 313t140 236.5t225.5 149.5t303.5 52q154 0 283.5 -45t226 -135t150.5 -227.5t54 -323.5q0 -184 -53 -323.5t-150.5 -233.5t-231.5 -142.5t-296 -48.5q-170 0 -300 51.5t-219 145.5t-135 228.5t-46 302.5zM236 1704q0 86 61 143.5t156 57.5 q45 0 83.5 -15.5t67.5 -42t45.5 -63.5t16.5 -80t-16.5 -79t-46.5 -62.5t-68.5 -41t-81.5 -14.5q-94 0 -155.5 55.5t-61.5 141.5zM465 713q0 -190 85 -305t261 -115q90 0 154.5 31.5t104.5 87t58.5 131.5t18.5 162q0 211 -92 315t-252 104q-166 0 -252 -109.5t-86 -301.5z M940 1704q0 43 16.5 79t46 63.5t68.5 43t86 15.5q45 0 84 -15.5t68.5 -42t46 -63.5t16.5 -80t-17.5 -79t-46 -62.5t-67.5 -41t-84 -14.5q-92 0 -154.5 55.5t-62.5 141.5z" />
<glyph unicode="&#xdc;" horiz-adv-x="1478" d="M123 612v813h377v-813q0 -147 59 -229t191 -82q135 0 199.5 84t60.5 231v641q4 104 47 147.5t137 43.5q86 0 136 -42t50 -153v-628q0 -168 -45 -290t-128 -201t-200.5 -116.5t-263.5 -37.5q-145 0 -259.5 36.5t-194.5 113.5t-123 196.5t-43 285.5zM205 1737 q0 86 61.5 143t155.5 57q45 0 84 -15t67.5 -42t45 -63.5t16.5 -79.5t-16.5 -79t-46 -62.5t-68.5 -41t-82 -14.5q-94 0 -155.5 55.5t-61.5 141.5zM860 1737q0 43 16.5 78.5t46 63.5t68.5 43t86 15q45 0 84 -15t69 -42t46 -63.5t16 -79.5t-17.5 -79t-46 -62.5t-67.5 -41 t-84 -14.5q-92 0 -154.5 55.5t-62.5 141.5z" />
<glyph unicode="&#xe4;" horiz-adv-x="1245" d="M72 518q0 147 43 260t120.5 191t189.5 117.5t249 39.5q74 0 143.5 -11t130 -28.5t107.5 -39t78 -43.5v-1004h-330v143q-27 -53 -70 -83.5t-89 -46t-88 -19.5t-67 -4q-104 0 -183 40t-131 110.5t-77.5 166.5t-25.5 211zM168 1399q0 82 56.5 137t142.5 55t142 -54t56 -138 q0 -82 -57 -135.5t-141 -53.5q-86 0 -142.5 53.5t-56.5 135.5zM412 543q0 -41 8 -86t30.5 -83t62.5 -63.5t101 -25.5q35 0 69 9t59.5 30.5t41 56.5t15.5 84v338q-20 16 -60.5 26.5t-83.5 10.5q-66 0 -111.5 -26t-74.5 -67.5t-43 -95t-14 -108.5zM739 1399q0 82 57.5 137 t143.5 55q84 0 140.5 -54t56.5 -138q0 -82 -57.5 -135.5t-139.5 -53.5q-86 0 -143.5 53.5t-57.5 135.5z" />
<glyph unicode="&#xf6;" horiz-adv-x="1267" d="M68 553q0 135 42 242.5t117.5 183.5t181 116t230.5 40q119 0 222.5 -38t179 -111t118.5 -179.5t43 -243.5q0 -139 -43 -247.5t-119.5 -183.5t-182 -115t-228.5 -40q-129 0 -232.5 41t-176.5 117t-112.5 182.5t-39.5 235.5zM158 1403q0 82 56 137t142 55t142.5 -54 t56.5 -138q0 -82 -57.5 -135.5t-141.5 -53.5q-86 0 -142 53.5t-56 135.5zM403 567q0 -61 16.5 -112.5t46.5 -89t74 -59t99 -21.5t99 21.5t74 60.5t45 89t15 109q0 129 -69.5 199t-167.5 70q-104 0 -168 -72t-64 -195zM729 1403q0 82 57.5 137t143.5 55q84 0 140 -54t56 -138 q0 -82 -57 -135.5t-139 -53.5q-86 0 -143.5 53.5t-57.5 135.5z" />
<glyph unicode="&#xfc;" horiz-adv-x="1269" d="M102 393v703h349v-596q0 -98 43 -146.5t122 -48.5q98 0 149.5 57.5t51.5 135.5v444q0 80 44 127t136 47q80 0 125 -42t45 -136v-938h-338v145q-72 -94 -167 -127.5t-185 -33.5q-80 0 -148.5 22.5t-118.5 71.5t-79 127t-29 188zM154 1411q0 82 56 137.5t142 55.5 t142.5 -54.5t56.5 -138.5q0 -82 -57.5 -135t-141.5 -53q-86 0 -142 53t-56 135zM725 1411q0 82 57.5 137.5t143.5 55.5q84 0 140 -54.5t56 -138.5q0 -82 -57 -135t-139 -53q-86 0 -143.5 53t-57.5 135z" />
<glyph unicode="&#x2000;" horiz-adv-x="968" />
<glyph unicode="&#x2001;" horiz-adv-x="1937" />
<glyph unicode="&#x2002;" horiz-adv-x="968" />
<glyph unicode="&#x2003;" horiz-adv-x="1937" />
<glyph unicode="&#x2004;" horiz-adv-x="645" />
<glyph unicode="&#x2005;" horiz-adv-x="484" />
<glyph unicode="&#x2006;" horiz-adv-x="322" />
<glyph unicode="&#x2007;" horiz-adv-x="322" />
<glyph unicode="&#x2008;" horiz-adv-x="242" />
<glyph unicode="&#x2009;" horiz-adv-x="387" />
<glyph unicode="&#x200a;" horiz-adv-x="107" />
<glyph unicode="&#x2010;" d="M123 639q0 86 54 126t122 40h397q68 0 122 -40t54 -126q0 -72 -42 -119t-119 -47h-426q-78 0 -120 47t-42 119z" />
<glyph unicode="&#x2011;" d="M123 639q0 86 54 126t122 40h397q68 0 122 -40t54 -126q0 -72 -42 -119t-119 -47h-426q-78 0 -120 47t-42 119z" />
<glyph unicode="&#x2012;" d="M123 639q0 86 54 126t122 40h397q68 0 122 -40t54 -126q0 -72 -42 -119t-119 -47h-426q-78 0 -120 47t-42 119z" />
<glyph unicode="&#x2013;" horiz-adv-x="1270" d="M123 639q0 86 74 126t167 40h542q93 0 167 -40t74 -126q0 -72 -57.5 -119t-162.5 -47h-583q-106 0 -163.5 47t-57.5 119z" />
<glyph unicode="&#x2014;" horiz-adv-x="1800" d="M123 639q0 84 54 124t122 40h1202q68 0 122 -40t54 -124q0 -72 -42 -118t-119 -46h-1231q-78 0 -120 46t-42 118z" />
<glyph unicode="&#x2018;" horiz-adv-x="653" d="M123.5 1044.5q-17.5 94.5 46.5 198.5q33 53 82 100.5t101.5 86t101.5 68.5t82 48l-2 -450q0 -78 -32 -127t-79 -72t-100.5 -21.5t-96.5 23.5q-86 51 -103.5 145.5z" />
<glyph unicode="&#x2019;" horiz-adv-x="620" d="M145 821l2 451q0 78 32 126t79 71.5t100.5 22.5t96.5 -24q86 -51 103 -145t-46 -199q-33 -53 -82 -100t-101.5 -86t-101.5 -68.5t-82 -48.5z" />
<glyph unicode="&#x201a;" horiz-adv-x="733" d="M164 -279l2 451q0 78 31.5 126t79 71.5t100.5 22.5t96 -23q86 -51 103.5 -145.5t-46.5 -198.5q-33 -53 -82 -100.5t-101 -86.5t-101 -68.5t-82 -48.5z" />
<glyph unicode="&#x201c;" horiz-adv-x="1128" d="M156 1047.5q-4 46.5 10 96.5t49 101q59 94 150.5 168t183.5 135v-442q0 -82 -30 -132t-75 -73.5t-97 -22.5t-97 25q-43 25 -66.5 61.5t-27.5 83zM624.5 1044.5q-10.5 90.5 55.5 200.5q35 55 77 100.5t87 82t88 66.5t80 54v-442q0 -82 -28 -133t-71 -75t-93 -22.5 t-95 25.5q-90 53 -100.5 143.5z" />
<glyph unicode="&#x201d;" horiz-adv-x="1036" d="M121 821v443q0 82 27.5 133t70.5 74.5t93 22.5t96 -26q90 -53 100 -143t-55 -201q-35 -55 -77 -100t-87 -82t-88 -66.5t-80 -54.5zM584 821v443q0 82 29.5 132t74.5 73.5t97.5 22.5t97.5 -26q43 -25 66.5 -61.5t27.5 -82.5t-11.5 -96t-47.5 -102q-59 -94 -150.5 -167.5 t-183.5 -135.5z" />
<glyph unicode="&#x201e;" horiz-adv-x="1085" d="M133 162q0 82 27.5 133t70.5 74.5t93.5 22.5t95.5 -25q90 -53 100 -143.5t-55 -200.5q-35 -55 -77 -100.5t-87 -82.5t-88 -66.5t-80 -54.5v443zM596 162q0 82 29.5 132t74.5 73.5t97.5 22.5t97.5 -25q43 -25 66.5 -62t27.5 -83t-11 -96t-48 -101q-59 -94 -150.5 -168 t-183.5 -136v443z" />
<glyph unicode="&#x2026;" horiz-adv-x="1931" d="M145 197q0 47 17.5 88t49.5 71.5t74 48t91 17.5t91 -17.5t73.5 -47t49 -70.5t17.5 -90q0 -47 -18.5 -88t-49 -71t-72.5 -47.5t-91 -17.5t-91 17.5t-74 47.5t-49.5 71t-17.5 88zM741 197q0 47 17.5 88t49.5 71.5t74 48t91 17.5t91 -17.5t73.5 -47t49 -70.5t17.5 -90 q0 -47 -18.5 -88t-49 -71t-72.5 -47.5t-91 -17.5t-91 17.5t-74 47.5t-49.5 71t-17.5 88zM1341 197q0 47 17.5 88t49.5 71.5t74 48t91 17.5t91 -17.5t73.5 -47t49 -70.5t17.5 -90q0 -47 -18.5 -88t-49 -71t-72.5 -47.5t-91 -17.5t-91 17.5t-74 47.5t-49.5 71t-17.5 88z" />
<glyph unicode="&#x202f;" horiz-adv-x="387" />
<glyph unicode="&#x205f;" horiz-adv-x="484" />
<glyph unicode="&#x20ac;" horiz-adv-x="1339" d="M45 459l35 205h104v38v66h-137l45 209h123q27 104 77 190t129 147.5t184.5 94.5t242.5 33q88 0 155.5 -16.5t108.5 -34.5q31 -14 56.5 -38t40 -54.5t14.5 -67.5t-19 -76q-16 -33 -42.5 -49t-57.5 -20.5t-62.5 0t-56.5 12.5q-61 20 -176 20q-92 0 -145.5 -38t-81.5 -103 h284q55 0 77 -33t17.5 -71.5t-31 -71.5t-71.5 -33h-317v-53v-51h247q55 0 77 -32t18 -71t-31 -70.5t-72 -31.5h-196q63 -145 243 -146q111 0 183.5 16.5t148.5 51.5l94 -254q-86 -66 -199.5 -102.5t-285.5 -36.5q-229 0 -371.5 121.5t-189.5 349.5h-162z" />
<glyph unicode="&#xe000;" horiz-adv-x="1126" d="M0 0v1126h1126v-1126h-1126z" />
</font>
</defs>
</svg>
